<svg width="61" height="61" viewBox="0 0 61 61" fill="none" xmlns="http://www.w3.org/2000/svg">
<path d="M30.5 0.03125C24.4739 0.03125 18.583 1.81821 13.5725 5.16616C8.56192 8.51411 4.65667 13.2727 2.35056 18.8401C0.0444516 24.4075 -0.558931 30.5338 0.616712 36.4442C1.79236 42.3545 4.69422 47.7835 8.95535 52.0447C13.2165 56.3058 18.6455 59.2077 24.5559 60.3833C30.4662 61.5589 36.5925 60.9556 42.1599 58.6495C47.7273 56.3433 52.4859 52.4381 55.8339 47.4275C59.1818 42.417 60.9688 36.5261 60.9688 30.5C60.9602 22.4218 57.7474 14.6769 52.0353 8.96476C46.3231 3.25261 38.5782 0.0397807 30.5 0.03125ZM32.8438 11.5684L40.1065 6.57324C44.2647 8.24827 47.9169 10.9738 50.7061 14.4834L48.3623 22.376C48.3037 22.376 48.2422 22.4053 48.1836 22.4258L41.4981 24.5967C41.3978 24.6288 41.2998 24.6679 41.2051 24.7139L32.8438 18.9629V11.5684ZM20.9024 6.57324L28.1563 11.5684V18.9629L19.7891 24.7256C19.6943 24.6796 19.5964 24.6405 19.4961 24.6084L12.8106 22.4375C12.752 22.417 12.6904 22.4023 12.6318 22.3877L10.2881 14.4951C13.0798 10.9792 16.7375 8.24936 20.9024 6.57324ZM17.0938 44.3926H8.79103C6.36065 40.6138 4.96732 36.2621 4.75099 31.7744L11.1963 26.8291C11.2517 26.8536 11.3085 26.8751 11.3662 26.8936L18.0547 29.0674C18.1441 29.0944 18.2351 29.1159 18.3272 29.1318L21.4883 38.3369C21.4443 38.3896 21.4004 38.4424 21.3594 38.498L17.2285 44.1846C17.1799 44.2514 17.1349 44.3209 17.0938 44.3926ZM37.1475 55.4023C32.7918 56.5625 28.2083 56.5625 23.8526 55.4023L20.9053 47.082C20.9434 47.0352 20.9844 46.9912 21.0195 46.9414L25.1533 41.252C25.202 41.1861 25.247 41.1176 25.2881 41.0469H35.7119C35.7531 41.1176 35.7981 41.1861 35.8467 41.252L39.9805 46.9414C40.0156 46.9912 40.0567 47.0352 40.0947 47.082L37.1475 55.4023ZM43.9063 44.3838C43.8651 44.3121 43.8202 44.2426 43.7715 44.1758L39.6377 38.498C39.5967 38.4424 39.5527 38.3896 39.5088 38.3369L42.6699 29.1318C42.762 29.1159 42.853 29.0944 42.9424 29.0674L49.6309 26.8936C49.6886 26.8751 49.7454 26.8536 49.8008 26.8291L56.2461 31.7744C56.0298 36.2621 54.6364 40.6138 52.2061 44.3926L43.9063 44.3838Z" fill="#D9251C"/>
</svg>
