<svg width="63" height="61" viewBox="0 0 63 61" fill="none" xmlns="http://www.w3.org/2000/svg">
<path d="M30.5 4.25001C30.5 3.25545 30.8951 2.30162 31.5984 1.59836C32.3016 0.8951 33.2554 0.500012 34.25 0.500012H36.125C37.5687 0.500012 38.8887 1.04376 39.8825 1.94001C40.9144 1.01038 42.2548 0.497196 43.6438 0.500012H47.3562C48.8 0.500012 50.12 1.04376 51.1175 1.94001C52.1485 1.01125 53.4874 0.498126 54.875 0.500012H56.75C57.7446 0.500012 58.6984 0.8951 59.4017 1.59836C60.1049 2.30162 60.5 3.25545 60.5 4.25001V13.625C60.5011 15.7538 59.7776 17.8196 58.4486 19.4826C57.1196 21.1455 55.2641 22.3067 53.1875 22.775C54.2525 37.9363 59.5625 47.4688 61.3887 50.3375C61.9887 51.2825 62.375 52.4113 62.375 53.6263V54.875C62.375 55.6137 62.2295 56.3451 61.9468 57.0276C61.6641 57.7101 61.2498 58.3302 60.7275 58.8525C60.2051 59.3748 59.585 59.7891 58.9026 60.0718C58.2201 60.3545 57.4887 60.5 56.75 60.5H36.215C37.0347 59.3891 37.5924 58.1071 37.8462 56.75H56.75C57.2473 56.75 57.7242 56.5525 58.0758 56.2008C58.4275 55.8492 58.625 55.3723 58.625 54.875V53.6263C58.6153 53.1717 58.4761 52.7294 58.2237 52.3513C56.075 48.9763 50.1425 38.1988 49.34 21.2113C49.3284 20.9598 49.3676 20.7085 49.4552 20.4725C49.5428 20.2364 49.677 20.0204 49.8499 19.8374C50.0228 19.6544 50.2308 19.508 50.4615 19.4071C50.6921 19.3062 50.9407 19.2528 51.1925 19.25C52.6726 19.2322 54.0861 18.6318 55.1264 17.5788C56.1667 16.5258 56.7501 15.1052 56.75 13.625V4.25001H54.875C54.3777 4.25001 53.9008 4.44756 53.5492 4.79919C53.1975 5.15082 53 5.62773 53 6.12501V9.87501C53.0015 10.3723 52.8054 10.8498 52.4548 11.2025C52.1042 11.5552 51.6279 11.7541 51.1306 11.7556C50.6333 11.7571 50.1558 11.561 49.8032 11.2104C49.4505 10.8599 49.2515 10.3835 49.25 9.88626V9.87501L49.2312 6.11751C49.2293 5.62153 49.0308 5.14654 48.6794 4.79653C48.328 4.44652 47.8522 4.25001 47.3562 4.25001H43.6438C43.1478 4.25001 42.672 4.44652 42.3206 4.79653C41.9692 5.14654 41.7707 5.62153 41.7688 6.11751L41.75 9.88251C41.7485 10.3798 41.5495 10.8561 41.1968 11.2067C40.8442 11.5573 40.3667 11.7534 39.8694 11.7519C39.3721 11.7504 38.8958 11.5514 38.5452 11.1987C38.1946 10.846 37.9985 10.3685 38 9.87126V6.12126C38 5.62398 37.8025 5.14707 37.4508 4.79544C37.0992 4.44381 36.6223 4.24626 36.125 4.24626H34.25V13.6213C34.2489 15.1021 34.8318 16.5237 35.8723 17.5775C36.9127 18.6313 38.3267 19.2322 39.8075 19.25C40.0593 19.2528 40.3079 19.3062 40.5385 19.4071C40.7692 19.508 40.9772 19.6544 41.1501 19.8374C41.323 20.0204 41.4572 20.2364 41.5448 20.4725C41.6324 20.7085 41.6716 20.9598 41.66 21.2113C41.0675 33.7363 37.685 42.8825 35.09 48.1775C34.848 47.9302 34.5939 47.6949 34.3287 47.4725C33.5774 46.8409 32.8869 46.1404 32.2662 45.38C34.4712 40.5875 37.0962 32.9488 37.8125 22.7713C35.7381 22.3 33.8851 21.1385 32.5567 19.477C31.2283 17.8155 30.5032 15.7523 30.5 13.625V4.25001ZM9.875 23C9.875 21.8116 10.1574 20.6402 10.6989 19.5824C11.2405 18.5246 12.0256 17.6106 12.9897 16.9157C13.9537 16.2208 15.0691 15.765 16.2439 15.5858C17.4187 15.4066 18.6193 15.5091 19.7467 15.8849C20.8741 16.2607 21.8961 16.899 22.7284 17.7473C23.5607 18.5955 24.1795 19.6294 24.5339 20.7638C24.8882 21.8981 24.9679 23.1004 24.7664 24.2716C24.5649 25.4428 24.088 26.5493 23.375 27.5C23.1661 27.7786 23.0388 28.1098 23.0076 28.4566C22.9763 28.8034 23.0422 29.1521 23.198 29.4635C23.3537 29.775 23.593 30.0369 23.8893 30.22C24.1855 30.403 24.5268 30.5 24.875 30.5H26.75C27.2473 30.5 27.7242 30.6976 28.0758 31.0492C28.4275 31.4008 28.625 31.8777 28.625 32.375C28.625 32.8723 28.4275 33.3492 28.0758 33.7008C27.7242 34.0525 27.2473 34.25 26.75 34.25H22.5988C22.3337 34.2502 22.0716 34.3066 21.8299 34.4155C21.5882 34.5244 21.3724 34.6834 21.1966 34.8818C21.0208 35.0803 20.8891 35.3137 20.8102 35.5668C20.7313 35.8199 20.7069 36.0868 20.7387 36.35C21.8712 45.6125 26.7725 50.93 29.5138 53.225C30.17 53.7725 30.5 54.4625 30.5 55.0588C30.5 55.5073 30.3218 55.9375 30.0046 56.2547C29.6875 56.5718 29.2573 56.75 28.8087 56.75H5.9375C5.4896 56.749 5.06039 56.5704 4.74403 56.2533C4.42767 55.9363 4.25 55.5067 4.25 55.0588C4.25 54.4588 4.58 53.7725 5.2325 53.225C7.9775 50.93 12.8825 45.6125 14.0113 36.35C14.0431 36.0868 14.0187 35.8199 13.9398 35.5668C13.8609 35.3137 13.7292 35.0803 13.5534 34.8818C13.3776 34.6834 13.1618 34.5244 12.9201 34.4155C12.6784 34.3066 12.4163 34.2502 12.1512 34.25H8C7.50272 34.25 7.02581 34.0525 6.67418 33.7008C6.32254 33.3492 6.125 32.8723 6.125 32.375C6.125 31.8777 6.32254 31.4008 6.67418 31.0492C7.02581 30.6976 7.50272 30.5 8 30.5H9.875C10.2232 30.5 10.5645 30.403 10.8607 30.22C11.157 30.0369 11.3963 29.775 11.5521 29.4635C11.7078 29.1521 11.7737 28.8034 11.7424 28.4566C11.7112 28.1098 11.5839 27.7786 11.375 27.5C10.3986 26.2032 9.87201 24.6233 9.875 23ZM17.375 11.75C15.5635 11.7495 13.7787 12.1865 12.1723 13.0237C10.5659 13.861 9.1854 15.0738 8.14825 16.559C7.1111 18.0442 6.44795 19.7579 6.21517 21.5544C5.9824 23.3509 6.18689 25.177 6.81125 26.8775C5.45473 27.1714 4.25475 27.9564 3.44208 29.0816C2.62941 30.2067 2.26145 31.5927 2.40895 32.9728C2.55645 34.3529 3.20901 35.6298 4.24112 36.5578C5.27324 37.4858 6.61202 37.9995 8 38H9.95C8.555 44.7425 4.87625 48.635 2.825 50.3488C1.5275 51.4363 0.5 53.1088 0.5 55.0588C0.5 58.0625 2.9375 60.5 5.94125 60.5H28.8125C31.8125 60.5 34.25 58.0625 34.25 55.0588C34.25 53.1088 33.2225 51.4363 31.925 50.3488C29.8738 48.635 26.195 44.7425 24.8 38H26.75C28.138 37.9995 29.4768 37.4858 30.5089 36.5578C31.541 35.6298 32.1935 34.3529 32.3411 32.9728C32.4886 31.5927 32.1206 30.2067 31.3079 29.0816C30.4953 27.9564 29.2953 27.1714 27.9388 26.8775C28.5631 25.177 28.7676 23.3509 28.5348 21.5544C28.3021 19.7579 27.6389 18.0442 26.6017 16.559C25.5646 15.0738 24.1841 13.861 22.5777 13.0237C20.9713 12.1865 19.1865 11.7495 17.375 11.75Z" fill="#EC1F24"/>
</svg>
