<svg width="55" height="55" viewBox="0 0 55 55" fill="none" xmlns="http://www.w3.org/2000/svg">
<path d="M34.704 33.4041C34.7853 33.702 34.8123 34 34.8123 34.2708C34.8936 36.0312 34.1082 37.927 32.8353 39.0916C32.2394 39.6062 31.2644 40.1479 30.5061 40.3645C28.1228 41.2041 25.7394 40.0125 24.3311 38.6312C26.8769 38.0354 28.3665 36.1937 28.854 34.2708C29.179 32.6187 28.5019 31.2375 28.2311 29.6125C27.9603 28.0416 28.0144 26.7145 28.5832 25.2791C28.9894 26.0645 29.4228 26.877 29.9373 27.5C31.5623 29.6125 34.1353 30.5333 34.704 33.4041ZM54.5832 27.5C54.5832 42.3958 42.3957 54.5833 27.4998 54.5833C12.604 54.5833 0.416504 42.3958 0.416504 27.5C0.416504 12.6041 12.604 0.416626 27.4998 0.416626C42.3957 0.416626 54.5832 12.6041 54.5832 27.5ZM41.4748 29.0166L41.204 28.475C40.7707 27.5 39.5519 25.8208 39.5519 25.8208C39.0644 25.1979 38.4686 24.6291 37.9269 24.0875C36.4915 22.8145 34.8936 21.9208 33.5123 20.5937C30.3436 17.5062 29.6394 12.4416 31.6707 8.54163C29.6394 9.02913 27.879 10.1125 26.3623 11.3312C20.8644 15.7187 18.6978 23.4375 21.2978 30.0729C21.379 30.2895 21.4603 30.5062 21.4603 30.777C21.4603 31.2375 21.1353 31.6437 20.729 31.8333C20.2144 32.0229 19.7269 31.9145 19.3748 31.5625C19.2258 31.4817 19.1035 31.3594 19.0228 31.2104C16.6665 28.2041 16.2332 23.8708 17.8311 20.4312C14.2832 23.302 12.3603 28.15 12.604 32.7C12.7665 33.7562 12.8748 34.8125 13.254 35.8687C13.5519 37.1416 14.1207 38.3333 14.7707 39.525C17.0457 43.1541 21.0269 45.7812 25.3061 46.2958C29.8561 46.8645 34.7311 46.052 38.2248 42.9375C42.1248 39.4166 43.479 33.8104 41.4748 29.0166Z" fill="#EC1F24"/>
</svg>
