<svg width="61" height="49" viewBox="0 0 61 49" fill="none" xmlns="http://www.w3.org/2000/svg">
<path d="M21.125 24.5C21.125 26.9864 22.1127 29.371 23.8709 31.1291C25.629 32.8873 28.0136 33.875 30.5 33.875C32.9864 33.875 35.371 32.8873 37.1291 31.1291C38.8873 29.371 39.875 26.9864 39.875 24.5C39.875 22.0136 38.8873 19.629 37.1291 17.8709C35.371 16.1127 32.9864 15.125 30.5 15.125C28.0136 15.125 25.629 16.1127 23.8709 17.8709C22.1127 19.629 21.125 22.0136 21.125 24.5ZM2.375 15.125H11.75V33.875H2.375V15.125ZM49.25 15.125H58.625V33.875H49.25V15.125Z" stroke="#EC1F24" stroke-width="4" stroke-linecap="round" stroke-linejoin="round"/>
<path d="M30.5 2.625V46.375M2.375 8.875C2.375 7.2174 3.03348 5.62768 4.20558 4.45558C5.37768 3.28348 6.9674 2.625 8.625 2.625H52.375C54.0326 2.625 55.6223 3.28348 56.7944 4.45558C57.9665 5.62768 58.625 7.2174 58.625 8.875V40.125C58.625 41.7826 57.9665 43.3723 56.7944 44.5444C55.6223 45.7165 54.0326 46.375 52.375 46.375H8.625C6.9674 46.375 5.37768 45.7165 4.20558 44.5444C3.03348 43.3723 2.375 41.7826 2.375 40.125V8.875Z" stroke="#EC1F24" stroke-width="4" stroke-linecap="round" stroke-linejoin="round"/>
</svg>
