<svg width="53" height="53" viewBox="0 0 53 53" fill="none" xmlns="http://www.w3.org/2000/svg">
<path d="M50.0896 37.6042L45.648 33.1625C45.2592 32.8017 44.9927 32.3285 44.8859 31.809C44.7791 31.2894 44.8372 30.7495 45.0522 30.2646C45.9966 28.2363 46.4953 26.029 46.5146 23.7917C46.5272 23.7018 46.5272 23.6107 46.5146 23.5208C46.524 20.28 45.5203 17.1173 43.6438 14.475C40.0176 9.4071 35.2118 5.29846 29.6417 2.50418C26.1085 0.774546 22.1247 0.186851 18.2425 0.822557C14.3604 1.45826 10.7721 3.28588 7.97506 6.0521L6.16048 7.86668C3.36516 10.6743 1.51968 14.2872 0.883321 18.1976C0.246959 22.1081 0.851694 26.1197 2.61257 29.6688L2.8834 30.1292C1.43806 31.6286 0.623675 33.6258 0.608398 35.7083C0.619152 37.1454 1.01088 38.5539 1.74362 39.7902C2.47636 41.0265 3.5239 42.0463 4.77939 42.7457C6.03489 43.445 7.4534 43.7988 8.89025 43.771C10.3271 43.7432 11.7309 43.3349 12.9584 42.5875C13.4459 42.9667 13.8792 43.3729 14.3667 43.725C15.3919 44.4378 16.5018 45.02 17.6709 45.4583H17.9146C18.4021 45.6479 18.9167 45.8104 19.4584 45.9729H19.8646C20.7075 46.1894 21.569 46.3254 22.4376 46.3792H24.1167C24.6855 46.3792 25.2271 46.3792 25.7959 46.2167H26.2563C27.5879 45.988 28.8819 45.578 30.1021 44.9979C30.5884 44.8021 31.1211 44.7516 31.6354 44.8526C32.1498 44.9535 32.6239 45.2016 33.0001 45.5667L36.9542 49.5208C38.6699 51.2425 40.9966 52.2161 43.4271 52.2292C45.4659 52.2073 47.4132 51.3797 48.8438 49.9271L49.873 48.8979C51.3668 47.4112 52.2245 45.4021 52.2649 43.2949C52.3054 41.1876 51.5254 39.1471 50.0896 37.6042ZM8.65215 38.4708C8.11649 38.4708 7.59286 38.312 7.14748 38.0144C6.7021 37.7168 6.35496 37.2938 6.14998 36.799C5.94499 36.3041 5.89135 35.7595 5.99586 35.2341C6.10036 34.7088 6.3583 34.2262 6.73707 33.8474C7.11584 33.4687 7.59841 33.2107 8.12378 33.1062C8.64914 33.0017 9.1937 33.0554 9.68858 33.2603C10.1835 33.4653 10.6064 33.8125 10.904 34.2578C11.2016 34.7032 11.3605 35.2269 11.3605 35.7625C11.3605 36.4808 11.0751 37.1697 10.5672 37.6776C10.0593 38.1855 9.37044 38.4708 8.65215 38.4708ZM17.048 38.85L16.3438 38.3084C16.6258 37.489 16.7722 36.6291 16.7771 35.7625C16.7771 33.6076 15.9211 31.541 14.3974 30.0173C12.8737 28.4935 10.807 27.6375 8.65215 27.6375H7.62298L7.37923 27.2042C6.11953 24.6707 5.68505 21.8062 6.1368 19.0131C6.58856 16.22 7.90386 13.6385 9.89798 11.6313L11.7126 9.81668C13.7456 7.86816 16.3355 6.60191 19.1218 6.19415C21.9082 5.7864 24.7523 6.25743 27.2584 7.54168C31.8079 9.81727 35.7597 13.129 38.7959 17.2104L17.048 38.85ZM46.2438 45.2688L45.2417 46.2979C44.1042 47.4354 42.3438 47.2188 40.8813 45.7563L36.9272 41.8292C35.7627 40.6723 34.2752 39.8952 32.6604 39.6003C31.0457 39.3054 29.3795 39.5065 27.8813 40.1771C27.0275 40.5955 26.1138 40.8788 25.173 41.0167C24.6554 41.1155 24.129 41.1609 23.6021 41.1521H22.4105L41.0167 22.5458C41.2063 24.4015 40.888 26.2738 40.0959 27.9625C39.4253 29.4607 39.2242 31.1269 39.5191 32.7416C39.814 34.3564 40.5911 35.8439 41.748 37.0083L46.1897 41.4771C46.6932 41.9762 46.9809 42.6529 46.991 43.3619C47.0012 44.0708 46.7329 44.7554 46.2438 45.2688Z" fill="#EC1F24"/>
</svg>
