<svg width="53" height="53" viewBox="0 0 53 53" fill="none" xmlns="http://www.w3.org/2000/svg">
<path d="M2.125 26.5C2.125 29.701 2.75548 32.8706 3.98044 35.8279C5.20539 38.7852 7.00084 41.4723 9.26427 43.7357C11.5277 45.9992 14.2148 47.7946 17.1721 49.0196C20.1294 50.2445 23.299 50.875 26.5 50.875C29.701 50.875 32.8706 50.2445 35.8279 49.0196C38.7852 47.7946 41.4723 45.9992 43.7357 43.7357C45.9992 41.4723 47.7946 38.7852 49.0196 35.8279C50.2445 32.8706 50.875 29.701 50.875 26.5C50.875 23.299 50.2445 20.1294 49.0196 17.1721C47.7946 14.2148 45.9992 11.5277 43.7357 9.26427C41.4723 7.00084 38.7852 5.2054 35.8279 3.98044C32.8706 2.75548 29.701 2.125 26.5 2.125C23.299 2.125 20.1294 2.75548 17.1721 3.98044C14.2148 5.2054 11.5277 7.00084 9.26427 9.26427C7.00084 11.5277 5.20539 14.2148 3.98044 17.1721C2.75548 20.1294 2.125 23.299 2.125 26.5Z" stroke="#EC1F24" stroke-width="4" stroke-linecap="round" stroke-linejoin="round"/>
<path d="M26.5 26.5C28.6218 30.2583 31.8177 33.2974 35.6779 35.2275C39.5382 37.1576 43.8869 37.8909 48.1667 37.3333M14.3125 30.5625C16.5262 35.0778 19.7575 39.0179 23.7521 42.0726C27.7467 45.1273 32.3957 47.2134 37.3333 48.1667" stroke="#EC1F24" stroke-width="4" stroke-linecap="round" stroke-linejoin="round"/>
<path d="M26.5001 26.5C22.1845 26.4584 17.9548 27.7065 14.3532 30.0844C10.7516 32.4624 7.94216 35.8617 6.28509 39.8467M29.0757 13.9144C24.0582 13.5734 19.0299 14.4015 14.3867 16.3335C9.74353 18.2655 5.61204 21.2487 2.31738 25.0484" stroke="#EC1F24" stroke-width="4" stroke-linecap="round" stroke-linejoin="round"/>
<path d="M26.5 26.5C28.6938 22.7834 29.7276 18.4962 29.469 14.1882C29.2103 9.88015 27.671 5.7475 25.0483 2.32001M36.1119 35.0231C38.9157 30.8486 40.7126 26.0804 41.3611 21.0937C42.0097 16.107 41.4922 11.0378 39.8494 6.28501" stroke="#EC1F24" stroke-width="4" stroke-linecap="round" stroke-linejoin="round"/>
</svg>
